<svg width="120" height="120" viewBox="0 0 120 120" fill="none" xmlns="http://www.w3.org/2000/svg">
  <rect width="120" height="120" rx="30" fill="white"/>
  <path d="M60 20C70 20 80 30 80 40V60C80 70 70 80 60 80C50 80 40 70 40 60V40C40 30 50 20 60 20Z" fill="#6366F1"/>
  <path d="M60 40C65 40 70 45 70 50V70C70 75 65 80 60 80C55 80 50 75 50 70V50C50 45 55 40 60 40Z" fill="white"/>
  <circle cx="60" cy="60" r="8" fill="#6366F1"/>
  <path d="M30 100C30 95 35 90 40 90H80C85 90 90 95 90 100" stroke="#6366F1" stroke-width="4" stroke-linecap="round"/>
</svg>
